<?xml version="1.0" encoding="UTF-8"?>
<svg width="16px" height="17px" viewBox="0 0 16 17" version="1.1" xmlns="http://www.w3.org/2000/svg" xmlns:xlink="http://www.w3.org/1999/xlink">
    <!-- Generator: Sketch 55.2 (78181) - https://sketchapp.com -->
    <title>refresh</title>
    <desc>Created with Sketch.</desc>
    <g id="Page-1" stroke="none" stroke-width="1" fill="none" fill-rule="evenodd">
        <g id="3_red" transform="translate(-594.000000, -654.000000)" fill="#000000">
            <g id="Group-9" transform="translate(0.000000, 484.000000)">
                <g id="Group-7" transform="translate(475.000000, 41.000000)">
                    <g id="Button_Accent_Default" transform="translate(65.000000, 119.000000)">
                        <g id="Group-3" transform="translate(50.000000, 6.000000)">
                            <g id="Razer/Icons-Black/refresh" transform="translate(0.000000, 0.125000)">
                                <path d="M17.6,6.4 C16.2,4.9 14.2,4 12,4 C7.6,4 4,7.6 4,12 C4,16.4 7.6,20 12,20 C16.1,20 19.4,16.9 19.9,13 L17.9,13 C17.4,15.8 15,18 12,18 C8.7,18 6,15.3 6,12 C6,8.7 8.7,6 12,6 C13.7,6 15.1,6.7 16.2,7.8 L13,11 L20,11 L20,4 L17.6,6.4 L17.6,6.4 Z" id="refresh"></path>
                            </g>
                        </g>
                    </g>
                </g>
            </g>
        </g>
    </g>
</svg>